<svg height="24" viewBox="0 0 24 24" width="24" xmlns="http://www.w3.org/2000/svg"><path d="m15.7439414 9h.7560586c2.4852814 0 4.5 2.0147186 4.5 4.5s-2.0147186 4.5-4.5 4.5h-6c-.2761424 0-.5-.2238576-.5-.5s.2238576-.5.5-.5h6c1.9329966 0 3.5-1.5670034 3.5-3.5s-1.5670034-3.5-3.5-3.5h-.5274644c.0181477.1641669.0274644.3309955.0274644.5 0 .2761424-.2238576.5-.5.5s-.5-.2238576-.5-.5c0-1.93299662-1.5670034-3.5-3.5-3.5h-.5c-2.209139 0-4 1.790861-4 4v.5c0 .2761424-.22385763.5-.5.5-1.06741264 0-2.0066183.6751517-2.35726554 1.6649026-.09221516.2602902-.3779772.3965419-.63826737.3043267-.26029018-.0922151-.3965419-.3779772-.30432674-.6382673.43538722-1.2289413 1.51831959-2.1111817 2.79985965-2.295308v-.035654c0-2.76142375 2.23857625-5 5-5h.5c1.9593282 0 3.6261868 1.25221144 4.2439414 3zm-.6342866-3.37310962c-.0686509.26747274-.3411329.42864967-.6086057.35999876-.2674727-.06865091-.4286497-.34113296-.3599987-.60860569.5066493-1.97397074 2.2925933-3.37828345 4.3589496-3.37828345.1807736 0 .3603436.01068471.5380487.03188349.3795095.04527241.5699613.48232377.344741.79111636-.2475458.3394025-.3827897.74734127-.3827897 1.17700015 0 1.1045695.8954305 2 2 2 .4296589 0 .8375976-.13524385 1.1770002-.3827897.3087925-.22522027.7458439-.0347685.7911163.34474097.0211988.17770509.0318835.35727509.0318835.53804873 0 1.12000205-.4113624 2.17734952-1.1422659 2.9959942-.1839111.20598866-.4999872.22388608-.7059759.039975s-.2238861-.49998726-.039975-.70597592c.495425-.55489822.801634-1.24924472.8724119-1.99527651-.3124395.10843141-.6442147.16528323-.9841951.16528323-1.6568542 0-3-1.34314575-3-3 0-.33994358.0568395-.67168375.165248-.98409363-1.4623949.13955922-2.689404 1.18426387-3.0555932 2.61098401zm-4.6096548 7.37310962c-.2761424 0-.5-.2238576-.5-.5s.2238576-.5.5-.5h.5c1.1045695 0 2 .8954305 2 2s-.8954305 2-2 2h-9.5c-.27614237 0-.5-.2238576-.5-.5s.22385763-.5.5-.5h9.5c.5522847 0 1-.4477153 1-1s-.4477153-1-1-1zm-7 6c-.27614237 0-.5-.2238576-.5-.5s.22385763-.5.5-.5h4.5c1.1045695 0 2 .8954305 2 2s-.8954305 2-2 2h-1.5c-.27614237 0-.5-.2238576-.5-.5s.22385763-.5.5-.5h1.5c.55228475 0 1-.4477153 1-1s-.44771525-1-1-1z"/></svg>